<?xml version="1.0" encoding="UTF-8" standalone="no"?>
<!DOCTYPE svg PUBLIC "-//W3C//DTD SVG 1.1//EN" "http://www.w3.org/Graphics/SVG/1.1/DTD/svg11.dtd">
<svg width="100%" height="100%" viewBox="0 0 1080 1080" version="1.1" xmlns="http://www.w3.org/2000/svg" xmlns:xlink="http://www.w3.org/1999/xlink" xml:space="preserve" xmlns:serif="http://www.serif.com/" style="fill-rule:evenodd;clip-rule:evenodd;stroke-linejoin:round;stroke-miterlimit:2;">
    <g transform="matrix(1,0,0,1,-218.791,-183.264)">
        <rect x="-64.212" y="-99.739" width="1646.01" height="1646.01" style="fill:rgb(47,107,79);"/>
    </g>
    <g transform="matrix(1,0,0,1,-7.87951,-31.8454)">
        <g transform="matrix(0.830685,0,0,0.830685,80.5583,-83.257)">
            <g transform="matrix(621.225,0,0,621.225,129.93,731.787)">
                <path d="M0.229,-0L0.229,-0.712L0.429,-0.712L0.429,-0L0.229,-0ZM0.016,-0.542L0.016,-0.712L0.643,-0.712L0.643,-0.542L0.016,-0.542Z" style="fill:rgb(249,247,242);fill-rule:nonzero;"/>
            </g>
            <g transform="matrix(621.225,0,0,621.225,539.317,731.787)">
                <path d="M0.193,-0L0.193,-0.17L0.359,-0.17C0.396,-0.17 0.429,-0.177 0.456,-0.191C0.483,-0.204 0.504,-0.225 0.519,-0.253C0.534,-0.281 0.541,-0.316 0.541,-0.357C0.541,-0.398 0.534,-0.433 0.519,-0.46C0.503,-0.487 0.483,-0.508 0.456,-0.522C0.429,-0.535 0.396,-0.542 0.359,-0.542L0.183,-0.542L0.183,-0.712L0.359,-0.712C0.415,-0.712 0.466,-0.704 0.514,-0.687C0.56,-0.67 0.601,-0.646 0.636,-0.615C0.671,-0.584 0.698,-0.546 0.717,-0.503C0.736,-0.459 0.745,-0.41 0.745,-0.356C0.745,-0.302 0.736,-0.253 0.717,-0.21C0.698,-0.166 0.671,-0.128 0.636,-0.097C0.601,-0.066 0.561,-0.042 0.514,-0.025C0.467,-0.008 0.416,-0 0.361,-0L0.193,-0ZM0.059,-0L0.059,-0.712L0.259,-0.712L0.259,-0L0.059,-0Z" style="fill:rgb(249,247,242);fill-rule:nonzero;"/>
            </g>
            <g transform="matrix(621.225,0,0,621.225,1016.42,731.787)">
            </g>
        </g>
        <g transform="matrix(0.830685,0,0,0.830685,105.243,357.931)">
            <g transform="matrix(621.225,0,0,621.225,129.93,731.787)">
                <path d="M0.289,0.012C0.228,0.012 0.175,0.003 0.131,-0.015C0.086,-0.032 0.044,-0.06 0.006,-0.099L0.131,-0.224C0.157,-0.199 0.184,-0.181 0.213,-0.168C0.242,-0.155 0.272,-0.148 0.305,-0.148C0.332,-0.148 0.353,-0.152 0.367,-0.161C0.381,-0.169 0.388,-0.18 0.388,-0.195C0.388,-0.21 0.382,-0.222 0.37,-0.232C0.358,-0.241 0.342,-0.25 0.323,-0.258C0.303,-0.265 0.281,-0.273 0.258,-0.281C0.234,-0.289 0.21,-0.299 0.187,-0.31C0.164,-0.321 0.142,-0.335 0.123,-0.352C0.103,-0.368 0.087,-0.388 0.075,-0.413C0.063,-0.437 0.057,-0.467 0.057,-0.502C0.057,-0.548 0.068,-0.588 0.09,-0.621C0.112,-0.654 0.143,-0.68 0.183,-0.698C0.223,-0.715 0.27,-0.724 0.324,-0.724C0.377,-0.724 0.427,-0.716 0.473,-0.699C0.518,-0.682 0.556,-0.657 0.586,-0.626L0.46,-0.501C0.438,-0.522 0.416,-0.538 0.394,-0.549C0.372,-0.559 0.348,-0.564 0.322,-0.564C0.301,-0.564 0.285,-0.561 0.273,-0.554C0.26,-0.547 0.254,-0.537 0.254,-0.524C0.254,-0.51 0.26,-0.499 0.272,-0.49C0.284,-0.481 0.3,-0.472 0.32,-0.465C0.339,-0.458 0.361,-0.45 0.385,-0.442C0.408,-0.434 0.432,-0.425 0.455,-0.414C0.478,-0.403 0.5,-0.389 0.52,-0.372C0.539,-0.355 0.555,-0.333 0.567,-0.308C0.579,-0.283 0.585,-0.252 0.585,-0.216C0.585,-0.143 0.559,-0.087 0.508,-0.048C0.456,-0.008 0.383,0.012 0.289,0.012Z" style="fill:rgb(249,247,242);fill-rule:nonzero;"/>
            </g>
            <g transform="matrix(621.225,0,0,621.225,508.256,731.787)">
                <path d="M0.221,-0.25L0.221,-0.394L0.35,-0.394C0.365,-0.394 0.38,-0.397 0.393,-0.404C0.406,-0.41 0.416,-0.42 0.424,-0.433C0.432,-0.446 0.436,-0.462 0.436,-0.481C0.436,-0.5 0.432,-0.517 0.424,-0.53C0.416,-0.543 0.406,-0.552 0.393,-0.559C0.38,-0.565 0.365,-0.568 0.35,-0.568L0.221,-0.568L0.221,-0.712L0.389,-0.712C0.435,-0.712 0.476,-0.703 0.514,-0.685C0.551,-0.666 0.58,-0.64 0.602,-0.606C0.623,-0.571 0.634,-0.53 0.634,-0.481C0.634,-0.433 0.623,-0.392 0.602,-0.357C0.58,-0.322 0.551,-0.296 0.514,-0.278C0.476,-0.259 0.435,-0.25 0.389,-0.25L0.221,-0.25ZM0.059,-0L0.059,-0.712L0.259,-0.712L0.259,-0L0.059,-0Z" style="fill:rgb(249,247,242);fill-rule:nonzero;"/>
            </g>
            <g transform="matrix(621.225,0,0,621.225,913.295,731.787)">
            </g>
        </g>
    </g>
</svg>
